<?xml version="1.0" encoding="utf-8"?>
<!-- Generator: Adobe Illustrator 18.1.1, SVG Export Plug-In . SVG Version: 6.00 Build 0)  -->
<!DOCTYPE svg PUBLIC "-//W3C//DTD SVG 1.1//EN" "http://www.w3.org/Graphics/SVG/1.1/DTD/svg11.dtd">
<svg version="1.1" id="Layer_1" xmlns="http://www.w3.org/2000/svg" xmlns:xlink="http://www.w3.org/1999/xlink" x="0px" y="0px"
	 viewBox="0 0 40 40" enable-background="new 0 0 40 40" xml:space="preserve">
<g>
	<path d="M8.1,20.5c0-2.3,0.7-4.4,1.8-6.2C9.9,14.2,10,14.1,10,14c0.1-0.2,0.2-0.3,0.3-0.5c0.1-0.2,0.2-0.3,0.4-0.5
		c0.1-0.1,0.2-0.2,0.2-0.3c0.2-0.2,0.4-0.4,0.6-0.6c0,0,0.1-0.1,0.1-0.1c0.2-0.2,0.5-0.5,0.7-0.7c0,0,0.1,0,0.1-0.1
		c0.3-0.2,0.6-0.4,0.9-0.6c0,0,0,0,0,0c0.3-0.2,0.6-0.4,1-0.6c0,0,0,0,0,0c0.3-0.2,0.7-0.3,1-0.5c0,0,0,0,0,0c0.3-0.1,0.7-0.3,1-0.4
		c0,0,0,0,0.1,0c0.4-0.1,0.7-0.2,1.1-0.3c0,0,0,0,0.1,0c0.4-0.1,0.8-0.1,1.1-0.2c0,0,0,0,0,0c0.4,0,0.8-0.1,1.2-0.1
		c0.4,0,0.8,0,1.2,0.1c0,0,0,0,0,0c0.4,0,0.9,0.1,1.3,0.2c0,0,0.1,0,0.1,0c0.4,0.1,0.8,0.2,1.1,0.3c0.1,0,0.1,0,0.2,0.1
		c0.4,0.1,0.8,0.3,1.1,0.5c0,0,0,0,0.1,0c0.6,0.3,1.1,0.6,1.7,0.9l0.1,0.1L26.7,10c-1-2.3-2.6-4.2-4.5-5.7L20.6,3
		c-0.2,0-0.4,0-0.6,0C11.3,3,4.2,9.3,3.1,17.9c1,5.5,4.5,10.1,9.6,12.5c0.5,0.2,1,0.4,1.5,0.5l-0.1-0.1C10.5,28.7,8.1,24.9,8.1,20.5
		z"/>
	<path d="M33.1,9.2C30.5,6,26.9,3.9,22.8,3.2l0.4,0.3c5.6,4.6,7.7,12.7,5.1,19.7c-0.4,1.2-1,2.4-1.7,3.4c-0.2,0.2-0.3,0.5-0.5,0.7
		c-3.1,4.4-7.9,6.9-13.1,6.9c-0.6,0-1.2,0-1.9-0.1L10.2,34c0,0,0,0,0,0l0.8,0.5c2.2,1.4,4.7,2.2,7.2,2.4c0.6,0.1,1.1,0.1,1.7,0.1h0
		c8.3,0,15.2-5.8,16.7-13.8c0.1-0.5,0.2-1,0.2-1.6C37.4,17.1,36,12.7,33.1,9.2L33.1,9.2z"/>
	<path d="M8.5,32.6L8.5,32.6c1.5,0.5,2.9,0.7,4.3,0.7c1,0,1.9-0.1,2.9-0.3l0.9-0.2l-0.9-0.2c-5.3-1.2-9.8-4.8-12.2-9.7L3,21.8
		c0.1,0.5,0.1,1,0.2,1.6c0.1,0.3,0.1,0.6,0.2,1c0,0.1,0,0.2,0.1,0.3C4.4,27.6,6.1,30.4,8.5,32.6"/>
</g>
</svg>
